#!OML:ASF H:\BreakDance\Project 1\Capture day 1\Session 1\Male.ASF
:FULLY-SPECIFIED
:DEGREES
372
root -9.94891 15.5757 -4.19011 230.914 -115.407 -194.462
lowerback 19.9684 0.892228 0.384794
upperback 7.27235 0.406371 -7.07636
thorax -3.216 0.11333 -7.96223
lowerneck -5.99035 -0.527834 2.51451
upperneck -10.5191 -0.766722 3.38656
head -2.29439 -0.645983 0.653811
rclavicle 2.70347e-014 -4.85035e-014
rhumerus 51.5011 -19.8103 -58.9998
rradius 61.1963
rwrist -42.3178
rhand -12.6498 -34.4684
rfingers 7.12502
rthumb 13.4308 -64.0154
lclavicle 2.70347e-014 -4.85035e-014
lhumerus 16.6599 15.2189 82.2429
lradius 7.33019
lwrist -51.6984
lhand -24.7037 -20.7051
lfingers 7.12502
lthumb 1.79774 9.26702
rfemur -45.9003 -9.62008 37.6137
rtibia 55.5398
rfoot -30.315 5.3481
rtoes 1.9856
lfemur -87.4581 14.9281 -54.3301
ltibia 34.3251
lfoot -1.70486 -30.8162
ltoes -26.0276
373
root -9.86269 15.5576 -4.21005 230.832 -115.721 -193.759
lowerback 20.7849 -0.689606 -2.09582
upperback 7.44558 -1.97246 -5.18311
thorax -3.65256 -1.08301 -3.89078
lowerneck -7.23147 0.984048 -1.90825
upperneck -10.1803 1.49092 3.71181
head -2.03344 0.667709 1.50912
rclavicle 9.70069e-014 -1.82882e-014
rhumerus 56.4429 -14.9461 -59.5715
rradius 61.2985
rwrist -42.177
rhand -12.5056 -34.3911
rfingers 7.12502
rthumb 13.5698 -63.9289
lclavicle 9.70069e-014 -1.82882e-014
lhumerus 17.4642 20.4153 83.6563
lradius 7.89384
lwrist -50.4395
lhand -25.1166 -19.3806
lfingers 7.12502
lthumb 1.39896 10.5946
rfemur -47.5424 -9.74403 37.6824
rtibia 56.6384
rfoot -29.9708 5.2644
rtoes 0.694869
lfemur -87.7412 13.7269 -53.3915
ltibia 34.6618
lfoot -1.38016 -29.6597
ltoes -24.7561
374
root -9.79031 15.5312 -4.21849 230.692 -115.651 -193.583
lowerback 22.079 -1.03214 -2.30471
upperback 7.60003 -2.52375 -5.12262
thorax -4.16352 -1.3558 -3.55881
lowerneck -6.9376 1.23665 -2.16228
upperneck -10.5729 1.85481 3.76293
head -2.22969 0.852241 1.5731
rclavicle 1.59028e-015 5.08889e-014
rhumerus 57.4778 -14.531 -60.1924
rradius 61.7015
rwrist -41.7469
rhand -12.1707 -34.6294
rfingers 7.12502
rthumb 13.8925 -64.1454
lclavicle 1.59028e-015 5.08889e-014
lhumerus 18.7536 19.9167 83.4835
lradius 7.78443
lwrist -48.9556
lhand -25.7324 -18.85
lfingers 7.12502
lthumb 0.80422 11.1282
rfemur -48.8543 -9.65171 37.3569
rtibia 58.4568
rfoot -29.0871 5.91239
rtoes -0.411226
lfemur -87.562 12.588 -51.1017
ltibia 35.1774
lfoot -1.45839 -27.5372
ltoes -22.8898
375
root -9.71224 15.4811 -4.22585 230.877 -115.571 -193.682
lowerback 23.2077 -1.31234 -2.44562
upperback 7.78371 -2.96638 -4.99531
thorax -4.5409 -1.57334 -3.20867
lowerneck -6.75585 1.54045 -2.10016
upperneck -11.0475 2.23215 3.25372
head -2.42186 1.0435 1.39799
rclavicle -3.02153e-014 3.33958e-014
rhumerus 58.5804 -14.2523 -60.5802
rradius 62.1925
rwrist -41.4296
rhand -12.0224 -34.7476
rfingers 7.12502
rthumb 14.0354 -64.2537
lclavicle -3.02153e-014 3.33958e-014
lhumerus 20.3553 19.329 83.5524
lradius 7.43186
lwrist -47.467
lhand -26.5016 -18.2709
lfingers 7.12502
lthumb 0.0613207 11.7089
rfemur -50.6957 -9.58055 37.1632
rtibia 60.929
rfoot -27.723 6.7069
rtoes -1.68694
lfemur -87.751 11.341 -48.6074
ltibia 35.9228
lfoot -1.07103 -25.5674
ltoes -19.7825
376
root -9.62311 15.4285 -4.2329 231.526 -115.117 -193.925
lowerback 23.7664 -1.31673 -2.2957
upperback 7.98193 -3.00252 -5.27667
thorax -4.62792 -1.59471 -3.58462
lowerneck -6.84423 1.66165 -1.64956
upperneck -11.2963 2.36423 3.08934
head -2.48317 1.09149 1.26766
rclavicle -7.63333e-014 -5.725e-014
rhumerus 59.1125 -14.8647 -61.0569
rradius 62.8503
rwrist -41.3289
rhand -12.1489 -34.4994
rfingers 7.12502
rthumb 13.9135 -64.0139
lclavicle -7.63333e-014 -5.725e-014
lhumerus 21.7532 17.8031 83.2062
lradius 7.44032
lwrist -46.0589
lhand -26.9532 -17.8734
lfingers 7.12502
lthumb -0.374907 12.106
rfemur -53.2838 -9.27204 36.8436
rtibia 63.8477
rfoot -25.7159 7.65574
rtoes -2.31729
lfemur -88.1034 9.78484 -45.7787
ltibia 37.0098
lfoot -2.96026 -22.8104
ltoes -22.958
377
root -9.55119 15.39 -4.2336 231.309 -114.297 -194.222
lowerback 25.3001 -1.17301 -3.12421
upperback 8.33158 -3.11301 -5.21254
thorax -4.9632 -1.66247 -2.98682
lowerneck -6.59559 1.86376 -1.94443
upperneck -11.9993 2.62764 2.73612
head -2.77016 1.2346 1.20405
rclavicle -3.18055e-014 -3.57812e-014
rhumerus 60.0551 -14.788 -61.0456
rradius 63.674
rwrist -41.7236
rhand -12.4161 -34.3119
rfingers 7.12502
rthumb 13.656 -63.8439
lclavicle -3.18055e-014 -3.57812e-014
lhumerus 22.6853 17.0827 83.5239
lradius 7.43829
lwrist -45.0596
lhand -27.7872 -17.3214
lfingers 7.12502
lthumb -1.18037 12.6551
rfemur -54.9283 -9.12067 36.1372
rtibia 67.0041
rfoot -23.2938 8.73073
rtoes -2.17952
lfemur -87.8479 9.03767 -43.2518
ltibia 38.5064
lfoot -4.65907 -20.0673
ltoes -25.1866
378
root -9.48065 15.346 -4.23208 231.252 -113.569 -194.927
lowerback 26.9404 -0.947331 -3.58194
upperback 8.80081 -3.07996 -5.29311
thorax -5.22266 -1.66411 -2.80172
lowerneck -6.85696 1.98155 -1.6506
upperneck -12.2307 2.7391 2.32491
head -2.79201 1.28489 1.02145
rclavicle 9.22361e-014 2.94201e-014
rhumerus 60.885 -15.1588 -61.0459
rradius 64.489
rwrist -42.1579
rhand -12.6649 -34.1987
rfingers 7.12502
rthumb 13.4162 -63.7467
lclavicle 9.22361e-014 2.94201e-014
lhumerus 25.3422 16.0645 82.966
lradius 6.15448
lwrist -43.8214
lhand -27.915 -16.7649
lfingers 7.12502
lthumb -1.30386 13.2108
rfemur -56.496 -9.12504 35.6684
rtibia 70.355
rfoot -20.831 9.57559
rtoes -3.76842
lfemur -87.6216 8.43045 -40.6165
ltibia 40.5267
lfoot -6.24288 -17.3222
ltoes -27.3987
379
root -9.3992 15.2842 -4.22342 231.198 -113.229 -195.688
lowerback 28.5893 -1.0808 -3.97456
upperback 9.10282 -3.44879 -4.98366
thorax -5.64243 -1.84929 -2.09104
lowerneck -6.46834 2.35497 -2.57076
upperneck -12.8176 3.29078 2.3482
head -3.09839 1.59822 1.18177
rclavicle 3.18055e-014 -1.74931e-014
rhumerus 62.1057 -14.455 -60.8109
rradius 65.2857
rwrist -42.738
rhand -12.9957 -34.108
rfingers 7.12502
rthumb 13.0974 -63.6768
lclavicle 3.18055e-014 -1.74931e-014
lhumerus 27.0478 16.0177 83.0122
lradius 5.51627
lwrist -42.5443
lhand -27.9915 -15.6319
lfingers 7.12502
lthumb -1.37774 14.3434
rfemur -58.2858 -9.58488 35.62
rtibia 73.8868
rfoot -18.7032 10.057
rtoes -4.75884
lfemur -87.5961 7.46291 -37.6443
ltibia 43.2562
lfoot -7.95236 -14.2189
ltoes -29.1668
380
root -9.3203 15.2135 -4.22091 230.728 -113.128 -196.333
lowerback 30.3415 -1.03191 -3.57066
upperback 9.74612 -3.43989 -5.12225
thorax -5.77134 -1.86422 -2.45404
lowerneck -6.95857 2.45916 -1.66949
upperneck -13.1246 3.33507 1.71993
head -3.0825 1.59052 0.825704
rclavicle -3.18055e-014 -1.66979e-014
rhumerus 62.6993 -15.2258 -60.9469
rradius 66.2554
rwrist -43.3032
rhand -13.3071 -34.2681
rfingers 7.12502
rthumb 12.7971 -63.8559
lclavicle -3.18055e-014 -1.66979e-014
lhumerus 28.9219 14.4888 82.5855
lradius 5.22679
lwrist -41.1773
lhand -27.8923 -14.7894
lfingers 7.12502
lthumb -1.2819 15.1865
rfemur -59.8793 -10.2824 35.7612
rtibia 77.5219
rfoot -16.8954 10.2565
rtoes -0.794506
lfemur -87.6876 6.64421 -35.0012
ltibia 46.836
lfoot -9.32004 -11.3672
ltoes -29.5115
381
root -9.24692 15.1243 -4.22306 229.945 -113.119 -197.015
lowerback 32.4666 -1.11411 -3.44395
upperback 10.1688 -3.66527 -5.0287
thorax -6.26752 -1.98239 -2.30629
lowerneck -6.77967 2.62189 -2.10734
upperneck -13.6224 3.57263 1.71033
head -3.30383 1.72631 0.89301
rclavicle 3.81667e-014 -2.38542e-014
rhumerus 63.1896 -15.1099 -60.7672
rradius 67.2767
rwrist -43.9545
rhand -13.5181 -34.6603
rfingers 7.12502
rthumb 12.5937 -64.2606
lclavicle 3.81667e-014 -2.38542e-014
lhumerus 29.6053 14.0201 81.4962
lradius 5.41603
lwrist -39.474
lhand -27.866 -14.6744
lfingers 7.12502
lthumb -1.25652 15.3016
rfemur -61.098 -11.0436 35.9715
rtibia 81.1868
rfoot -15.6784 10.1054
rtoes 2.75669
lfemur -87.8702 6.27214 -33.0233
ltibia 51.2471
lfoot -10.1185 -9.4551
ltoes -29.7342
382
root -9.17711 15.0029 -4.22679 229.193 -112.945 -198.012
lowerback 35.177 -1.09778 -3.82198
upperback 9.8836 -3.93947 -4.75039
thorax -6.93989 -2.09146 -1.51351
lowerneck -6.46186 3.01507 -2.30113
upperneck -13.6375 4.05126 0.9824
head -3.36236 2.00374 0.677962
rclavicle 8.90555e-014 1.03368e-014
rhumerus 63.5316 -14.2842 -60.2455
rradius 68.3095
rwrist -44.5401
rhand -13.6483 -35.1214
rfingers 7.12502
rthumb 12.4682 -64.7294
lclavicle 8.90555e-014 1.03368e-014
lhumerus 29.4016 14.1603 80.4752
lradius 5.83424
lwrist -37.186
lhand -27.9525 -14.5601
lfingers 7.12502
lthumb -1.34008 15.4155
rfemur -61.9665 -11.7989 36.1942
rtibia 84.8249
rfoot -15.2425 9.52588
rtoes 0.697477
lfemur -88.2472 6.45501 -31.5818
ltibia 56.4455
lfoot -10.7613 -8.55678
ltoes -29.3046
383
root -9.10234 14.8646 -4.23106 228.245 -112.703 -198.934
lowerback 37.5496 -0.967501 -4.09408
upperback 10.0817 -4.05648 -4.5045
thorax -7.3867 -2.15909 -1.05571
lowerneck -6.36127 3.27386 -2.41436
upperneck -13.9444 4.36987 0.626688
head -3.48847 2.17983 0.573379
rclavicle -2.8625e-014 -5.08889e-014
rhumerus 63.7502 -13.9391 -59.7981
rradius 69.4772
rwrist -45.0201
rhand -13.6968 -35.5486
rfingers 7.12502
rthumb 12.4214 -65.1595
lclavicle -2.8625e-014 -5.08889e-014
lhumerus 29.6102 13.6492 80.1084
lradius 6.2044
lwrist -34.5906
lhand -28.2399 -13.8255
lfingers 7.12502
lthumb -1.61757 16.1481
rfemur -63.016 -12.7709 36.3877
rtibia 88.4376
rfoot -14.928 8.86503
rtoes -2.59437
lfemur -88.675 6.84897 -30.4324
ltibia 62.2109
lfoot -11.6543 -8.3653
ltoes -26.3647
